<svg height="512pt" viewBox="0 -11 512.00081 512" width="512pt" xmlns="http://www.w3.org/2000/svg"><path d="m510.09375 184.609375c-4.304688-13.242187-15.019531-22.773437-28.671875-25.5l-120.1875-24.007813c-5.152344-1.027343-9.578125-4.246093-12.148437-8.828124l-59.976563-106.882813c-6.808594-12.140625-19.1875-19.390625-33.109375-19.390625-13.917969 0-26.296875 7.25-33.109375 19.390625l-59.972656 106.882813c-2.570313 4.582031-7 7.800781-12.152344 8.828124l-120.1875 24.007813c-13.648437 2.726563-24.367187 12.257813-28.667969 25.5-4.304687 13.238281-1.234375 27.25 8.207032 37.480469l83.121093 90.066406c3.5625 3.859375 5.253907 9.066406 4.640625 14.285156l-14.304687 121.722656c-1.625 13.828126 4.128906 26.964844 15.390625 35.148438 11.261718 8.183594 25.535156 9.59375 38.183594 3.777344l111.34375-51.222656c4.773437-2.195313 10.246093-2.195313 15.019531 0l111.34375 51.222656c5.15625 2.371094 10.582031 3.539062 15.964843 3.539062 7.820313 0 15.546876-2.46875 22.21875-7.316406 11.265626-8.183594 17.015626-21.324219 15.390626-35.148438l-2.480469-21.105468c-.644531-5.484375-5.621094-9.40625-11.097657-8.765625-5.484374.644531-9.40625 5.613281-8.761718 11.097656l2.480468 21.109375c.769532 6.542969-1.957031 12.761719-7.285156 16.632812-5.332031 3.871094-12.085937 4.542969-18.070312 1.785157l-111.34375-51.21875c-10.085938-4.640625-21.652344-4.640625-31.734375 0l-111.34375 51.21875c-5.988281 2.753906-12.742188 2.085937-18.074219-1.785157-5.328125-3.871093-8.050781-10.089843-7.28125-16.632812l14.304688-121.722656c1.296874-11.023438-2.277344-22.023438-9.804688-30.183594l-83.125-90.066406c-4.464844-4.839844-5.917969-11.472656-3.882812-17.738282 2.035156-6.265624 7.109374-10.777343 13.570312-12.066406l120.183594-24.007812c10.886718-2.175782 20.246094-8.972656 25.675781-18.652344l59.972656-106.886719c3.222657-5.746093 9.082031-9.175781 15.671875-9.175781 6.585938 0 12.445313 3.429688 15.667969 9.175781l59.972656 106.886719c5.433594 9.679688 14.789063 16.476562 25.675781 18.652344l120.183594 24.007812c6.460938 1.289063 11.535156 5.800782 13.570313 12.066406 2.035156 6.265626.582031 12.898438-3.886719 17.738282l-83.117188 90.070312c-7.527343 8.15625-11.105468 19.15625-9.808593 30.179688l2.496093 21.253906c.648438 5.484375 5.613282 9.40625 11.101563 8.761719 5.484375-.644531 9.40625-5.613281 8.761719-11.097657l-2.496094-21.25c-.613281-5.21875 1.078125-10.425781 4.640625-14.285156l83.121094-90.066406c9.4375-10.234375 12.507812-24.246094 8.207031-37.484375zm0 0"/><path d="m133.941406 276.90625c3.375 64.925781 56.992188 115.789062 122.058594 115.789062 67.398438 0 122.226562-54.832031 122.226562-122.230468 0-67.394532-54.828124-122.226563-122.226562-122.226563-37.855469 0-72.964844 17.121094-96.316406 46.972657-3.40625 4.351562-2.636719 10.636718 1.710937 14.039062 4.351563 3.402344 10.636719 2.636719 14.039063-1.714844 19.535156-24.976562 48.902344-39.300781 80.566406-39.300781 56.371094 0 102.230469 45.859375 102.230469 102.230469s-45.859375 102.230468-102.230469 102.230468c-54.421875 0-99.265625-42.53125-102.089844-96.828124-.285156-5.515626-4.984375-9.75-10.503906-9.464844-5.511719.285156-9.75 4.988281-9.464844 10.503906zm0 0"/><path d="m263.988281 198.730469c-9.457031 0-18.027343 3.855469-24.226562 10.074219-6.203125-6.21875-14.773438-10.074219-24.226563-10.074219-18.875 0-34.226562 15.351562-34.226562 34.226562 0 8.804688 3.34375 16.847657 8.832031 22.917969-.058594.429688-.097656.863281-.097656 1.308594v60.40625c0 5.519531 4.476562 9.996094 10 9.996094h80.226562c5.523438 0 10-4.476563 10-9.996094v-4.816406l34.273438 8.144531c.765625.179687 1.539062.269531 2.3125.269531 2.226562 0 4.414062-.746094 6.199219-2.152344 2.398437-1.898437 3.800781-4.789062 3.800781-7.847656v-51.253906c0-3.058594-1.402344-5.949219-3.800781-7.84375-2.402344-1.898438-5.539063-2.589844-8.511719-1.882813l-34.273438 8.144531v-1.167968c0-.714844-.078125-1.40625-.21875-2.078125 5.085938-5.976563 8.164063-13.707031 8.164063-22.148438-.003906-18.875-15.355469-34.226562-34.226563-34.226562zm0 19.996093c7.84375 0 14.226563 6.382813 14.226563 14.230469 0 7.84375-6.382813 14.226563-14.226563 14.226563-7.847656 0-14.230469-6.382813-14.230469-14.226563 0-7.847656 6.382813-14.230469 14.230469-14.230469zm-48.453125 0c7.84375 0 14.226563 6.382813 14.226563 14.230469 0 7.84375-6.382813 14.226563-14.226563 14.226563-7.847656 0-14.230468-6.382813-14.230468-14.226563 0-7.847656 6.382812-14.230469 14.230468-14.230469zm54.734375 88.863282h-60.226562v-40.410156h60.226562zm46.585938-35.003906v25.949218l-26.585938-6.316406v-13.3125zm0 0"/><path d="m419.585938 382.289062c-2.410157-3.621093-7.058594-5.273437-11.21875-4.007812-4.054688 1.234375-6.949219 5.007812-7.09375 9.238281-.140626 4.054688 2.316406 7.882813 6.023437 9.496094 3.714844 1.617187 8.183594.761719 11.046875-2.105469 3.347656-3.355468 3.828125-8.671875 1.242188-12.621094zm0 0"/><path d="m145.460938 244.863281c3.945312 1.644531 8.664062.515625 11.433593-2.738281 2.632813-3.097656 3.125-7.617188 1.207031-11.203125-1.988281-3.71875-6.242187-5.84375-10.414062-5.160156-4.199219.6875-7.554688 4.050781-8.265625 8.238281-.765625 4.539062 1.804687 9.101562 6.039063 10.863281zm0 0"/></svg>